<svg xmlns="http://www.w3.org/2000/svg" version="1.1" xmlns:xlink="http://www.w3.org/1999/xlink" xmlns:svgjs="http://svgjs.dev/svgjs" width="2000" height="1286" viewBox="0 0 2000 1286"><g transform="matrix(1,0,0,1,0.4565278942416171,0.5206477732792791)"><svg viewBox="0 0 384 247" data-background-color="#181d27" preserveAspectRatio="xMidYMid meet" height="1286" width="2000" xmlns="http://www.w3.org/2000/svg" xmlns:xlink="http://www.w3.org/1999/xlink"><g id="tight-bounds" transform="matrix(1,0,0,1,-0.08765335569438548,-0.09999999999999432)"><svg viewBox="0 0 384.17530671138877 247.2" height="247.2" width="384.17530671138877"><g><svg viewBox="0 0 395.52 254.49981373595023" height="247.2" width="384.17530671138877"><g transform="matrix(1,0,0,1,0,200.9156472269625)"><svg viewBox="0 0 395.52 53.58416650898771" height="53.58416650898771" width="395.52"><g id="textblocktransform"><svg viewBox="0 0 395.52 53.58416650898771" height="53.58416650898771" width="395.52" id="textblock"><g><svg viewBox="0 0 395.52 53.58416650898771" height="53.58416650898771" width="395.52"><g transform="matrix(1,0,0,1,0,0)"><svg width="395.52" viewBox="1.75 -35.35 264.22 35.800000000000004" height="53.58416650898771" data-palette-color="#41521f"><path d="M10.9-14.2L10.9-14.2 10.25-12.3 22.2-12.3 21.55-14.25 16.3-30.45Q15.7-28.3 10.9-14.2ZM9.1-8.85L6.1 0 1.75 0 13.5-33.7 19.1-33.7 30.65 0 26.3 0 23.35-8.85 9.1-8.85ZM55.75-25.35L55.75 0 51.8 0 51.8-4.4Q49.8 0.3 43.85 0.3L43.85 0.3Q40.1 0.3 37.92-1.93 35.75-4.15 35.75-7.9L35.75-7.9 35.75-25.35 39.7-25.35 39.7-8.9Q39.7-6.15 41.1-4.7 42.5-3.25 44.9-3.25L44.9-3.25Q48.05-3.25 49.92-5.45 51.8-7.65 51.8-11.4L51.8-11.4 51.8-25.35 55.75-25.35ZM75.75-4.4L75.75-0.65Q74.09 0.25 72.05 0.25L72.05 0.25Q64.55 0.25 64.55-7.4L64.55-7.4 64.55-22.15 60.5-22.15 60.5-25.35 64.55-25.35 64.55-31.65 68.5-31.65 68.5-25.35 75.5-25.35 75.5-22.15 68.5-22.15 68.5-7.3Q68.5-3.25 72.3-3.25L72.3-3.25Q74.25-3.25 75.75-4.4L75.75-4.4ZM103.79-12.6L103.79-12.6Q103.79-6.95 100.59-3.25 97.39 0.45 91.79 0.45L91.79 0.45Q86.34 0.45 83.17-3.23 79.99-6.9 79.99-12.5L79.99-12.5Q79.99-18.15 83.27-21.93 86.54-25.7 91.79-25.7L91.79-25.7Q97.54-25.7 100.67-22 103.79-18.3 103.79-12.6ZM84.09-12.55L84.09-12.55Q84.09-8.6 86.19-5.83 88.29-3.05 91.79-3.05L91.79-3.05Q95.59-3.05 97.64-5.78 99.69-8.5 99.69-12.55L99.69-12.55Q99.69-16.75 97.74-19.48 95.79-22.2 91.79-22.2L91.79-22.2Q88.19-22.2 86.14-19.4 84.09-16.6 84.09-12.55ZM129.09-33.7L129.09-30.15 119.99-30.15 119.99 0 115.94 0 115.94-30.15 106.84-30.15 106.84-33.7 129.09-33.7ZM137.59-13.85L137.59 0 133.64 0 133.69-25.35 137.59-25.35 137.59-20.9Q139.59-25.6 144.49-25.6L144.49-25.6Q145.39-25.6 145.89-25.5L145.89-25.5 145.89-21.6Q144.84-21.95 143.74-21.95L143.74-21.95Q141.09-21.95 139.34-19.5 137.59-17.05 137.59-13.85L137.59-13.85ZM157.74-3.05L157.74-3.05Q160.44-3.05 162.03-4.58 163.64-6.1 163.64-8.45L163.64-8.45 163.64-11.7 159.24-11.7Q156.03-11.7 154.44-10.45 152.84-9.2 152.84-7.3 152.84-5.4 154.09-4.23 155.34-3.05 157.74-3.05ZM163.69 0L163.69-3Q161.74 0.25 156.59 0.25L156.59 0.25Q153.03 0.25 150.86-1.85 148.69-3.95 148.69-7.15L148.69-7.15Q148.69-10.8 151.46-12.83 154.24-14.85 159.03-14.85L159.03-14.85 163.64-14.85 163.64-16.15Q163.64-19.15 162.28-20.68 160.94-22.2 157.74-22.2L157.74-22.2Q153.69-22.2 150.53-20.05L150.53-20.05 150.53-24Q153.39-25.75 158.03-25.75L158.03-25.75Q167.59-25.75 167.59-16.05L167.59-16.05 167.59 0 163.69 0ZM177.18-12.4L177.18-12.4Q177.18-8.3 179.18-5.75 181.18-3.2 184.23-3.2L184.23-3.2Q187.33-3.2 189.51-5.5 191.68-7.8 191.68-12.85L191.68-12.85Q191.68-17.65 189.43-19.9 187.18-22.15 184.48-22.15L184.48-22.15Q181.33-22.15 179.26-19.63 177.18-17.1 177.18-12.4ZM195.63-35.35L195.63 0 191.68 0 191.68-3.75Q188.98 0.4 183.88 0.4L183.88 0.4Q178.83 0.4 175.96-3.35 173.08-7.1 173.08-12.45L173.08-12.45Q173.08-18.4 176.13-22.08 179.18-25.75 183.98-25.75L183.98-25.75Q188.93-25.75 191.68-21.5L191.68-21.5 191.68-35.35 195.63-35.35ZM221.43-5L221.43-1.3Q218.48 0.25 214.23 0.25L214.23 0.25Q208.48 0.25 204.96-3.28 201.43-6.8 201.43-12.6L201.43-12.6Q201.43-18.65 204.58-22.15 207.73-25.65 212.68-25.65L212.68-25.65Q217.43-25.65 220.23-22.6 223.03-19.55 223.03-13.95L223.03-13.95Q223.03-12.35 222.78-11L222.78-11 205.48-11Q205.93-7.25 208.33-5.25 210.73-3.25 214.63-3.25L214.63-3.25Q218.88-3.25 221.43-5L221.43-5ZM212.68-22.2L212.68-22.2Q209.83-22.2 207.83-20.15 205.83-18.1 205.48-14.3L205.48-14.3 219.08-14.3 219.08-15.3Q219.08-18.45 217.38-20.33 215.68-22.2 212.68-22.2ZM236.28-14.2L236.28-14.2 235.63-12.3 247.58-12.3 246.93-14.25 241.68-30.45Q241.08-28.3 236.28-14.2ZM234.48-8.85L231.48 0 227.13 0 238.88-33.7 244.48-33.7 256.03 0 251.68 0 248.73-8.85 234.48-8.85ZM265.97-33.7L265.97 0 261.92 0 261.92-33.7 265.97-33.7Z" opacity="1" transform="matrix(1,0,0,1,0,0)" fill="#ffffff" class="wordmark-text-0" data-fill-palette-color="primary" id="text-0"></path></svg></g></svg></g></svg></g></svg></g><g transform="matrix(1,0,0,1,109.95211207929452,0)"><svg viewBox="0 0 175.61577584141094 175.61577584141094" height="175.61577584141094" width="175.61577584141094"><g><svg></svg></g><g id="icon-0"><svg viewBox="0 0 175.61577584141094 175.61577584141094" height="175.61577584141094" width="175.61577584141094"><g><path d="M0 87.808c0-48.495 39.313-87.808 87.808-87.808 48.495 0 87.808 39.313 87.808 87.808 0 48.495-39.313 87.808-87.808 87.808-48.495 0-87.808-39.313-87.808-87.808zM87.808 170.784c45.826 0 82.976-37.149 82.975-82.976 0-45.826-37.149-82.976-82.975-82.976-45.826 0-82.976 37.149-82.976 82.976 0 45.826 37.149 82.976 82.976 82.976z" data-fill-palette-color="accent" fill="#ffffff" stroke="transparent"></path><ellipse rx="86.92980904149842" ry="86.92980904149842" cx="87.80788792070547" cy="87.80788792070547" fill="#ffffff" stroke="transparent" stroke-width="0" fill-opacity="1" data-fill-palette-color="accent"></ellipse></g><g transform="matrix(1,0,0,1,41.061907639543534,41.06116563985653)"><svg viewBox="0 0 93.49196056232387 93.49344456169787" height="93.49344456169787" width="93.49196056232387"><g><svg xmlns="http://www.w3.org/2000/svg" xmlns:xlink="http://www.w3.org/1999/xlink" version="1.1" x="0" y="0" viewBox="18.748999999999995 18.999 63 63.001000000000005" enable-background="new 0 0 100 100" xml:space="preserve" height="93.49344456169787" width="93.49196056232387" class="icon-cg-0" data-fill-palette-color="quaternary" id="cg-0"><path fill="#000000" d="M18.749 18.999L18.749 18.999v27V46h27v-0.001V28h27v45h-27V55v-0.001h-27V55v27h63V19L18.749 18.999zM36.749 37h-9v-9h9V37zM27.749 73v-9.001h9V73H27.749z" data-fill-palette-color="quaternary"></path></svg></g></svg></g></svg></g></svg></g><g></g></svg></g><defs></defs></svg><rect width="384.17530671138877" height="247.2" fill="none" stroke="none" visibility="hidden"></rect></g></svg></g></svg>